<?xml version="1.0" encoding="UTF-8"?>
<svg id="Calque_1" data-name="Calque 1" xmlns="http://www.w3.org/2000/svg" viewBox="0 0 1989.22 954.23">
  <defs>
    <style>
      .cls-1 {
        fill: #00b9e7;
      }

      .cls-1, .cls-2 {
        stroke-width: 0px;
      }

      .cls-2 {
        fill: #fff;
      }

      .cls-3 {
        fill: none;
        stroke: #00b9e7;
        stroke-miterlimit: 10;
        stroke-width: 15px;
      }
    </style>
  </defs>
  <path class="cls-3" d="m1877.77,197.55c-61.15,0-93.58-38.69-93.58-86.42,0-4.62.47-9.15,1.36-13.57H200.47c.46,3.21.71,6.46.71,9.77,0,47.73-27.14,86.42-88.29,86.42-5.11,0-10.14-.28-15.07-.8v564.29c4.93-.52,9.96-.8,15.07-.8,61.15,0,88.29,38.69,88.29,86.42,0,4.7-.49,9.31-1.41,13.81h1585.84c-.93-4.5-1.41-9.11-1.41-13.81,0-47.73,32.43-86.42,93.58-86.42,4.62,0,9.16.22,13.63.65V196.9c-4.47.43-9.02.65-13.63.65Z"/>
  <g>
    <path class="cls-2" d="m259.1,617.21c-13.69-13.68-20.52-31.52-20.52-53.54v-173.12c0-22.01,6.84-39.86,20.52-53.54,13.68-13.68,31.52-20.52,53.54-20.52s39.86,6.85,53.54,20.52c13.68,13.68,20.52,31.53,20.52,53.54v36.59h-46.4v-36.59c0-8.92-2.53-16.06-7.58-21.42-5.06-5.35-11.6-8.03-19.63-8.03s-14.58,2.68-19.63,8.03c-5.06,5.35-7.58,12.49-7.58,21.42v173.12c0,8.92,2.52,16.06,7.58,21.42,5.05,5.35,11.6,8.03,19.63,8.03s14.57-2.68,19.63-8.03c5.05-5.35,7.58-12.49,7.58-21.42v-44.62h46.4v44.62c0,22.02-6.85,39.86-20.52,53.54s-31.53,20.52-53.54,20.52-39.86-6.84-53.54-20.52Z"/>
    <path class="cls-2" d="m452.29,320.95h47.29v312.32h-47.29v-312.32Z"/>
    <path class="cls-2" d="m573.65,320.95h52.2l60.23,209.7v-209.7h46.4v312.32h-49.97l-62.46-199.89v199.89h-46.4v-312.32Z"/>
    <path class="cls-2" d="m806.54,320.95h134.3v44.62h-87v87h69.16v44.62h-69.16v91.47h87v44.62h-134.3v-312.32Z"/>
    <path class="cls-1" d="m1002.86,320.95h74.07c22.6,0,40.6,6.77,53.99,20.3,13.38,13.54,20.08,31.61,20.08,54.21v163.3c0,22.61-6.69,40.68-20.08,54.21-13.39,13.54-31.39,20.3-53.99,20.3h-74.07v-312.32Zm71.83,267.71c9.22,0,16.36-2.52,21.42-7.58,5.05-5.05,7.58-12.19,7.58-21.42v-165.08c0-9.22-2.53-16.35-7.58-21.42-5.06-5.05-12.2-7.58-21.42-7.58h-24.54v223.09h24.54Z"/>
    <path class="cls-1" d="m1313.4,564.12h-50.86l-10.26,69.16h-47.29l51.76-312.32h63.36l51.76,312.32h-48.19l-10.26-69.16Zm-6.25-45.51l-19.19-130.73-19.19,130.73h38.37Z"/>
    <path class="cls-1" d="m1396.83,320.95h150.81v44.62h-51.76v267.71h-47.29v-267.71h-51.76v-44.62Z"/>
    <path class="cls-1" d="m1681.04,564.12h-50.86l-10.26,69.16h-47.29l51.76-312.32h63.36l51.76,312.32h-48.19l-10.26-69.16Zm-6.25-45.51l-19.19-130.73-19.19,130.73h38.37Z"/>
  </g>
</svg>